<mxfile host="app.diagrams.net" agent="Mozilla/5.0 (Macintosh; Intel Mac OS X 10_15_7) AppleWebKit/537.36 (KHTML, like Gecko) Chrome/134.0.0.0 Safari/537.36" version="26.2.0">
  <diagram name="Page-1" id="l68Ie0qIKhUvlrm3mWlw">
    <mxGraphModel dx="978" dy="663" grid="1" gridSize="10" guides="1" tooltips="1" connect="1" arrows="1" fold="1" page="1" pageScale="1" pageWidth="827" pageHeight="1169" math="0" shadow="0">
      <root>
        <mxCell id="0" />
        <mxCell id="1" parent="0" />
        <mxCell id="ub7mjjDI11-CCEvvaqSq-1" value="платная&amp;nbsp;" style="whiteSpace=wrap;html=1;aspect=fixed;fillColor=#f8cecc;strokeColor=#b85450;" vertex="1" parent="1">
          <mxGeometry x="120" y="240" width="81" height="81" as="geometry" />
        </mxCell>
        <mxCell id="ub7mjjDI11-CCEvvaqSq-2" value="резиденская&amp;nbsp;" style="whiteSpace=wrap;html=1;aspect=fixed;fillColor=#dae8fc;strokeColor=#6c8ebf;" vertex="1" parent="1">
          <mxGeometry x="270" y="125" width="310" height="310" as="geometry" />
        </mxCell>
        <mxCell id="ub7mjjDI11-CCEvvaqSq-3" value="" style="endArrow=cross;startArrow=cross;html=1;rounded=1;entryX=1;entryY=0.5;entryDx=0;entryDy=0;exitX=0;exitY=0.5;exitDx=0;exitDy=0;strokeWidth=4;endFill=0;startFill=0;fillColor=#f8cecc;strokeColor=#b85450;curved=0;" edge="1" parent="1">
          <mxGeometry width="50" height="50" relative="1" as="geometry">
            <mxPoint x="270" y="270" as="sourcePoint" />
            <mxPoint x="201" y="270.5" as="targetPoint" />
          </mxGeometry>
        </mxCell>
        <mxCell id="ub7mjjDI11-CCEvvaqSq-5" value="" style="endArrow=classic;html=1;rounded=0;entryX=0;entryY=0.5;entryDx=0;entryDy=0;strokeWidth=4;startArrow=block;startFill=1;fillColor=#f8cecc;strokeColor=#b85450;" edge="1" parent="1" target="ub7mjjDI11-CCEvvaqSq-1">
          <mxGeometry width="50" height="50" relative="1" as="geometry">
            <mxPoint x="30" y="280" as="sourcePoint" />
            <mxPoint x="440" y="320" as="targetPoint" />
          </mxGeometry>
        </mxCell>
        <mxCell id="ub7mjjDI11-CCEvvaqSq-6" value="" style="endArrow=classic;html=1;rounded=0;entryX=1;entryY=0.5;entryDx=0;entryDy=0;strokeWidth=4;fillColor=#dae8fc;strokeColor=#6c8ebf;startArrow=classic;startFill=1;" edge="1" parent="1" target="ub7mjjDI11-CCEvvaqSq-2">
          <mxGeometry width="50" height="50" relative="1" as="geometry">
            <mxPoint x="670" y="280" as="sourcePoint" />
            <mxPoint x="130" y="291" as="targetPoint" />
          </mxGeometry>
        </mxCell>
        <mxCell id="ub7mjjDI11-CCEvvaqSq-7" value="&lt;font style=&quot;color: rgb(255, 0, 0); background-color: rgb(169, 196, 235);&quot;&gt;15 минут free&lt;/font&gt;" style="endArrow=classic;html=1;rounded=0;strokeWidth=4;startArrow=block;startFill=1;fillColor=#dae8fc;strokeColor=#6c8ebf;entryX=0;entryY=0.532;entryDx=0;entryDy=0;entryPerimeter=0;" edge="1" parent="1">
          <mxGeometry width="50" height="50" relative="1" as="geometry">
            <mxPoint x="40" y="300" as="sourcePoint" />
            <mxPoint x="270" y="299.9200000000001" as="targetPoint" />
            <Array as="points">
              <mxPoint x="160" y="300" />
            </Array>
          </mxGeometry>
        </mxCell>
      </root>
    </mxGraphModel>
  </diagram>
</mxfile>
